<svg xmlns="http://www.w3.org/2000/svg" width="105" height="101" viewBox="0 0 105 101" fill="none">
<path d="M42.6325 81.6445H9.4739V9.70605H90.002C91.2584 9.70605 92.4632 9.20077 93.3516 8.30136C94.2399 7.40196 94.739 6.1821 94.739 4.91015C94.739 3.6382 94.2399 2.41835 93.3516 1.51894C92.4632 0.619538 91.2584 0.114258 90.002 0.114258H4.73695C3.48063 0.114258 2.27577 0.619538 1.38742 1.51894C0.49907 2.41835 0 3.6382 0 4.91015V86.4404C0 87.7123 0.49907 88.9322 1.38742 89.8316C2.27577 90.731 3.48063 91.2363 4.73695 91.2363H42.6325C43.8889 91.2363 45.0937 90.731 45.9821 89.8316C46.8704 88.9322 47.3695 87.7123 47.3695 86.4404C47.3695 85.1684 46.8704 83.9486 45.9821 83.0492C45.0937 82.1497 43.8889 81.6445 42.6325 81.6445Z" fill="white"/>
<path d="M104.213 45.6759C104.213 37.4082 100.969 29.4792 95.1947 23.6331C89.4205 17.7869 81.5889 14.5026 73.4228 14.5026C66.2349 14.4652 59.2677 17.0148 53.7645 21.6964H23.6848C22.4285 21.6964 21.2236 22.2017 20.3353 23.1011C19.4469 24.0005 18.9479 25.2204 18.9479 26.4923C18.9479 27.7643 19.4469 28.9841 20.3353 29.8835C21.2236 30.7829 22.4285 31.2882 23.6848 31.2882H46.1853C44.5646 34.2576 43.5195 37.5133 43.1063 40.88H23.6848C22.4285 40.88 21.2236 41.3853 20.3353 42.2847C19.4469 43.1841 18.9479 44.404 18.9479 45.6759C18.9479 46.9479 19.4469 48.1677 20.3353 49.0671C21.2236 49.9665 22.4285 50.4718 23.6848 50.4718H43.1063C43.5195 53.8385 44.5646 57.0942 46.1853 60.0636H23.6848C22.4285 60.0636 21.2236 60.5689 20.3353 61.4683C19.4469 62.3677 18.9479 63.5875 18.9479 64.8595C18.9479 66.1314 19.4469 67.3513 20.3353 68.2507C21.2236 69.1501 22.4285 69.6554 23.6848 69.6554H53.7645L56.8435 71.8135V95.0736C56.7724 96.4605 57.2206 97.8235 58.0988 98.8904C58.9769 99.9572 60.2202 100.649 61.5804 100.829C62.1636 100.815 62.7377 100.68 63.2673 100.433C63.7969 100.185 64.2707 99.8302 64.6594 99.3899L73.4228 91.2369L82.1862 99.3899C82.5749 99.8302 83.0487 100.185 83.5783 100.433C84.1079 100.68 84.682 100.815 85.2652 100.829C86.6254 100.649 87.8687 99.9572 88.7468 98.8904C89.625 97.8235 90.0732 96.4605 90.0021 95.0736V72.0533C94.3438 69.1927 97.9154 65.2847 100.396 60.6806C102.876 56.0764 104.188 50.9204 104.213 45.6759ZM80.5282 66.0585V84.7625L73.4228 78.0482L66.3174 84.7625V66.0585C62.1749 64.5389 58.5919 61.7705 56.051 58.1262C53.5102 54.4818 52.1335 50.1366 52.1065 45.6759C52.1065 39.9521 54.3523 34.4628 58.3499 30.4155C62.3475 26.3682 67.7694 24.0944 73.4228 24.0944C79.0762 24.0944 84.4981 26.3682 88.4957 30.4155C92.4933 34.4628 94.7391 39.9521 94.7391 45.6759C94.7121 50.1366 93.3354 54.4818 90.7946 58.1262C88.2537 61.7705 84.6707 64.5389 80.5282 66.0585Z" fill="white"/>
<path d="M73.4227 57.666C79.9631 57.666 85.2651 52.298 85.2651 45.6763C85.2651 39.0545 79.9631 33.6865 73.4227 33.6865C66.8823 33.6865 61.5803 39.0545 61.5803 45.6763C61.5803 52.298 66.8823 57.666 73.4227 57.666Z" fill="white"/>
</svg>