<svg xmlns="http://www.w3.org/2000/svg" width="111" height="100" viewBox="0 0 111 100" fill="none">
<path d="M55.6065 0C26.9776 0 3.43531 19.5913 0.532469 44.7356C0.319417 46.4663 0.212891 48.2212 0.212891 50C0.212891 51.7788 0.319417 53.5336 0.532469 55.2644C3.43531 80.4087 26.9776 100 55.6065 100C86.2061 100 111 77.6202 111 50C111 22.3798 86.2061 0 55.6065 0ZM91.7721 78.3894C85.7267 76.3221 75.9263 73.2933 69.8277 71.6587C69.1886 71.4904 69.1087 71.4423 69.1087 69.0865C69.1087 67.1394 69.9875 65.1683 70.8663 63.4856C71.8251 61.6827 72.917 58.6298 73.3164 55.8894C74.435 54.7115 75.9796 52.4038 76.9383 47.9808C77.7905 44.0865 77.3911 42.6683 76.8318 41.3462C76.7785 41.2019 76.6986 41.0577 76.672 40.9375C76.459 40.024 76.7519 35.2885 77.4976 31.6106C78.0036 29.0865 77.3644 23.726 73.5295 19.2788C71.106 16.4663 66.4455 13.0288 57.95 12.5481H53.2895C44.9272 13.0288 40.2933 16.4663 37.8432 19.2788C33.9817 23.726 33.3425 29.0865 33.8485 31.6106C34.5942 35.2885 34.8871 40.024 34.6741 40.9375C34.6208 41.1058 34.5676 41.226 34.5143 41.3702C33.955 42.6923 33.5289 44.1106 34.4078 48.0048C35.3931 52.4279 36.9111 54.7356 38.0297 55.9135C38.4291 58.6538 39.5477 61.6827 40.4798 63.5096C41.1722 64.8317 41.4918 66.6346 41.4918 69.1827C41.4918 71.5625 41.3852 71.5865 40.7993 71.7548C34.4877 73.4375 25.1134 76.4183 19.4941 78.4375C11.8242 70.5288 7.66972 60.5529 7.66972 50C7.66972 38.4375 12.6498 27.5721 21.7045 19.399C30.7593 11.226 42.7967 6.73077 55.6065 6.73077C68.4162 6.73077 80.4537 11.226 89.5084 19.399C98.5631 27.5721 103.543 38.4375 103.543 50C103.543 60.5529 99.3887 70.5288 91.7721 78.3894Z" fill="white"/>
</svg>