<svg xmlns="http://www.w3.org/2000/svg" width="98" height="100" viewBox="0 0 98 100" fill="none">
<path d="M6.80896 12.5C6.80896 7.8269 6.80896 5.4904 7.90301 3.75C8.61972 2.60985 9.65061 1.66305 10.892 1.0048C12.787 -3.72529e-07 15.331 0 20.4192 0H58.5278C63.6159 0 66.1599 -3.72529e-07 68.055 1.0048C69.2962 1.66305 70.3273 2.60985 71.0438 3.75C72.138 5.4904 72.138 7.8269 72.138 12.5C72.138 17.1731 72.138 19.5096 71.0438 21.25C70.3273 22.3901 69.2962 23.3369 68.055 23.9952C66.1599 25 63.6159 25 58.5278 25H20.4192C15.331 25 12.787 25 10.892 23.9952C9.65061 23.3369 8.61972 22.3901 7.90301 21.25C6.80896 19.5096 6.80896 17.1731 6.80896 12.5Z" fill="white"/>
<path d="M1.37658 9.69543C0.534488 10.3823 0.00390625 11.3843 0.00390625 12.5001C0.00390625 13.6159 0.534488 14.6178 1.37658 15.3047C1.36482 14.4809 1.36487 13.6102 1.36493 12.7012V12.299C1.36487 11.39 1.36482 10.5192 1.37658 9.69543Z" fill="white"/>
<path d="M28.5853 70V90C28.5853 94.714 28.5853 97.071 30.1799 98.5355C31.7745 100 34.3408 100 39.4735 100C44.6062 100 47.1725 100 48.7671 98.5355C50.3617 97.071 50.3617 94.714 50.3617 90V70C50.3617 65.286 50.3617 62.929 48.7671 61.4645C47.1725 60 44.6062 60 39.4735 60C34.3408 60 31.7745 60 30.1799 61.4645C28.5853 62.929 28.5853 65.286 28.5853 70Z" fill="white"/>
<path d="M77.5516 16.2499H77.8287C80.3036 16.2499 81.9652 16.2517 83.2527 16.3288C84.5059 16.4039 85.1184 16.5387 85.5212 16.6844C87.278 17.3196 88.6685 18.5967 89.3604 20.2103C89.5188 20.5803 89.6658 21.1428 89.7475 22.2938C89.8313 23.4764 89.8335 25.0021 89.8335 27.2754C89.8335 31.462 89.7758 32.6091 89.4448 33.4695C88.877 34.9458 87.7266 36.1726 86.2214 36.9073C85.3438 37.3354 84.1172 37.5579 79.6095 38.1789L57.1613 41.2714C52.9547 41.8509 49.4237 42.3374 46.6336 43.0579C43.6769 43.8214 41.061 44.9614 39.0195 47.1389C36.9333 49.3634 36.0726 52.0274 35.7013 55.0309C36.813 54.9994 37.9873 54.9999 39.1784 54.9999H39.7707C41.2134 54.9999 42.6305 54.9994 43.942 55.0549C44.2142 53.4509 44.6356 52.6429 45.2072 52.0334C45.8028 51.3979 46.718 50.8269 48.8439 50.2779C51.0808 49.6999 54.099 49.2774 58.6269 48.6534L81.4692 45.5069C85.0122 45.0219 87.7713 44.6439 90.0529 43.5304C93.3651 41.9144 95.8955 39.2151 97.1449 35.9672C98.0051 33.7298 98.0029 31.1675 97.9996 27.8778V27.1548C97.9996 25.0329 97.9996 23.2615 97.8962 21.8059C97.7884 20.291 97.557 18.8584 96.9587 17.4628C95.4371 13.9129 92.3775 11.1033 88.5128 9.70573C86.9928 9.15628 85.4331 8.94348 83.784 8.84473C82.1987 8.74983 80.2699 8.74983 77.96 8.74988H77.5516C77.5832 9.84323 77.5832 11.0339 77.5832 12.2987V12.7011C77.5832 13.9659 77.5832 15.1565 77.5516 16.2499Z" fill="white"/>
</svg>